<svg xmlns="http://www.w3.org/2000/svg" xmlns:xlink="http://www.w3.org/1999/xlink"><symbol id="arrow" viewBox="0 0 18 34"><g fill="none"><path d="M17 1L0.999999 17L17 33" stroke="currentColor"/></g></symbol><symbol id="ok" viewBox="0 0 25 25"><g fill="none"><path fill="#fff" d="M12.5 0C5.597 0 0 5.597 0 12.5S5.597 25 12.5 25 25 19.403 25 12.5 19.403 0 12.5 0Z"/><path fill="#030A1A" d="M12.68 6.889c.899 0 1.63.754 1.63 1.682 0 .924-.731 1.679-1.63 1.679-.898 0-1.629-.755-1.629-1.68 0-.927.73-1.681 1.63-1.681Zm0 5.74c2.17 0 3.935-1.82 3.935-4.058 0-2.24-1.764-4.062-3.935-4.062-2.17 0-3.932 1.821-3.932 4.062 0 2.237 1.762 4.059 3.932 4.059Zm1.592 3.314a7.29 7.29 0 0 0 2.284-.978c.538-.349.7-1.083.362-1.64a1.13 1.13 0 0 0-1.59-.374 4.866 4.866 0 0 1-5.297 0 1.127 1.127 0 0 0-1.589.374 1.213 1.213 0 0 0 .363 1.64 7.29 7.29 0 0 0 2.284.978l-2.2 2.269a1.218 1.218 0 0 0 0 1.682c.227.231.52.349.814.349.295 0 .59-.118.818-.35l2.16-2.229 2.162 2.23c.449.466 1.177.466 1.629 0 .45-.464.45-1.218 0-1.682l-2.2-2.269Z"/></g></symbol><symbol id="reddit" viewBox="0 0 25 25"><g fill="none"><path fill="#fff" d="M12.5 0C5.597 0 0 5.597 0 12.5S5.597 25 12.5 25 25 19.403 25 12.5 19.403 0 12.5 0Z"/><path fill="#030A1A" d="M13.85 5.556c-.444 0-.862.226-1.13.551-.269.326-.416.723-.524 1.142-.17.673-.224 1.42-.236 2.093a7.317 7.317 0 0 0-3.327 1.027c-.382-.32-.842-.5-1.283-.494-.503.004-.98.22-1.334.665-.678.85-.6 2.238.185 3.064a4.173 4.173 0 0 0-.084.78c0 2.796 2.858 5.06 6.383 5.06s6.383-2.266 6.383-5.06c0-.264-.036-.526-.084-.78.785-.826.863-2.214.185-3.064a1.697 1.697 0 0 0-1.334-.665c-.44-.005-.901.173-1.283.494a7.313 7.313 0 0 0-3.31-1.027c.017-.62.061-1.265.186-1.75.078-.305.171-.526.27-.647.1-.122.171-.172.338-.172.36 0 .407.117.625.4.11.143.236.32.439.495.202.173.502.323.827.323V6.773c-.09 0-.108-.002-.169-.057-.06-.054-.145-.18-.27-.342-.249-.326-.732-.818-1.452-.818Zm3.513.114c-.84 0-1.52.766-1.52 1.712 0 .947.68 1.712 1.52 1.712s1.52-.765 1.52-1.712c0-.946-.68-1.712-1.52-1.712Zm0 .609c.54 0 .98.494.98 1.103s-.44 1.104-.98 1.104-.98-.495-.98-1.104c0-.609.44-1.103.98-1.103ZM12.5 10.293c2.991 0 5.522 1.877 5.522 4.09 0 2.217-2.531 4.091-5.522 4.091s-5.522-1.874-5.522-4.09c0-2.215 2.531-4.09 5.522-4.09Zm-5.133.552c.15.002.306.04.455.114a4.986 4.986 0 0 0-1.266 1.598c-.203-.47-.148-1.058.101-1.37a.877.877 0 0 1 .71-.342Zm10.266 0a.877.877 0 0 1 .71.342c.249.312.304.9.1 1.37a4.984 4.984 0 0 0-1.266-1.598c.15-.074.306-.112.456-.114Zm-7.294 1.522c-.54 0-.98.495-.98 1.103 0 .61.44 1.104.98 1.104s.979-.495.979-1.104c0-.608-.44-1.103-.98-1.103Zm4.322 0c-.54 0-.979.495-.979 1.103 0 .61.44 1.104.98 1.104s.979-.495.979-1.104c0-.608-.44-1.103-.98-1.103Zm-4.846 3.748c.344.802 1.408 1.58 2.685 1.58 1.277 0 2.358-.779 2.702-1.58-.625.454-1.61.761-2.702.761-1.091 0-2.06-.307-2.685-.761Z"/></g></symbol><symbol id="supergym" viewBox="0 0 119 23"><g fill="#fff"><path d="M5.77 22.25c-1.18 0-2.2-.18-3.06-.54-.87-.36-1.53-1-1.98-1.9a9.21 9.21 0 0 1-.65-3.86v-1.22H3.61v1.51c0 1 .1 1.79.29 2.34.19.55.45.94.79 1.15.33.2.72.29 1.15.29.7 0 1.25-.23 1.66-.68.43-.48.64-1.37.64-2.67 0-.96-.14-1.68-.43-2.16a3 3 0 0 0-1.37-1.15c-.6-.31-1.38-.66-2.34-1.04a9 9 0 0 1-2.05-1.26c-.57-.48-1-1.1-1.3-1.84a7.73 7.73 0 0 1-.43-2.77C.22 5.1.4 4 .72 3.17c.37-.86.97-1.49 1.8-1.87C3.38.9 4.5.69 5.93.69c1.82 0 3.2.42 4.17 1.26.96.81 1.44 2.01 1.44 3.6v2.48H8.14V6.56c0-1.1-.18-1.9-.54-2.38-.33-.5-.88-.76-1.65-.76-.8 0-1.37.24-1.73.72-.34.46-.5 1.2-.5 2.2 0 .86.16 1.54.5 2.02.34.45.77.81 1.3 1.08.55.26 1.11.5 1.69.72 1.08.4 1.95.82 2.63 1.26.67.43 1.16 1 1.47 1.72.31.72.47 1.74.47 3.06a7.3 7.3 0 0 1-.76 3.6 4.18 4.18 0 0 1-2.08 1.88c-.9.38-1.95.57-3.17.57Zm15.15.18c-.82 0-1.58-.06-2.27-.18a3.54 3.54 0 0 1-2.99-2.34 8.03 8.03 0 0 1-.43-2.91V.72h3.45V17.9c0 .64.1 1.15.3 1.5.2.34.48.57.82.7.34.11.7.17 1.12.17.4 0 .78-.06 1.11-.18.34-.12.6-.35.8-.68.21-.36.32-.87.32-1.51V.72h3.42v16.24c0 1.22-.15 2.2-.43 2.95a3.32 3.32 0 0 1-1.16 1.62c-.5.36-1.1.6-1.8.72s-1.45.18-2.26.18Zm9.9-.43V.72h7.2c1.35 0 2.38.3 3.1.9.72.6 1.08 1.5 1.08 2.67v3.78c0 .91-.12 1.76-.36 2.55-.22.77-.65 1.4-1.3 1.88-.62.48-1.53.72-2.73.72h-3.39V22h-3.6Zm3.6-10.73h2.2a1.8 1.8 0 0 0 1.62-.83c.36-.57.54-1.5.54-2.77v-1.9c0-1.13-.16-1.94-.47-2.42a1.47 1.47 0 0 0-1.3-.72h-2.59v8.64ZM45.6 22V.72h9.58v2.45H49.2v6.45h4.94v2.7H49.2v7.3h5.98V22H45.6Zm12.85 0V.72h7.35c1.34 0 2.37.3 3.1.9.74.6 1.1 1.5 1.1 2.67v3.38c0 1.18-.31 2.14-.96 2.88-.65.72-1.61 1.12-2.88 1.19.81.07 1.39.34 1.73.8.36.45.68 1.16.97 2.12L70.9 22h-3.82l-1.69-7.1c-.17-.6-.36-1.12-.57-1.58-.22-.45-.57-.68-1.05-.68h-1.76V22h-3.57Zm3.57-11.77h2.3c.84 0 1.43-.22 1.77-.65.36-.43.54-1.1.54-1.98V4.9c0-.8-.17-1.37-.5-1.73-.32-.36-.81-.54-1.48-.54h-2.63v7.6Zm16.6 12.17c-.82 0-1.6-.14-2.31-.4a3.27 3.27 0 0 1-1.76-1.48 7.14 7.14 0 0 1-.65-3.42V5.22c0-1.3.24-2.28.72-2.95a3.5 3.5 0 0 1 2.01-1.4c.87-.27 1.86-.4 3-.4 1.12 0 2.12.13 2.98.4.86.26 1.54.74 2.02 1.44.5.67.75 1.64.75 2.91V8.1h-3.35V5.08c0-.72-.1-1.26-.32-1.62-.2-.36-.47-.6-.83-.72a3.66 3.66 0 0 0-1.22-.18c-.43 0-.83.06-1.2.18-.35.12-.64.36-.85.72-.2.36-.3.9-.3 1.62v12.78c0 .72.1 1.26.3 1.62.21.36.5.6.86.72s.76.18 1.19.18c.7 0 1.26-.2 1.69-.61.46-.43.68-1.07.68-1.91v-4.32h-2.12v-1.98h5.47V22h-2.6l-.17-1.8a4.9 4.9 0 0 1-.36.58c-.29.43-.72.81-1.3 1.15a4.8 4.8 0 0 1-2.34.47Zm13.3-.4v-9.14L87.94.72h3.42L93.6 8l.18 1.11L94 8 96.34.72h3.2l-4.17 12.32V22H91.9Zm10.53 0V.72h4.25l3.56 15.12 3.6-15.12h4.21V22h-3.06V5.58L111.45 22h-2.38l-3.56-16.42V22h-3.06Z"/></g></symbol><symbol id="vk" viewBox="0 0 25 25"><g fill="none"><path fill="#fff" d="M12.5 0C5.597 0 0 5.597 0 12.5S5.597 25 12.5 25 25 19.403 25 12.5 19.403 0 12.5 0Z"/><path fill="#030A1A" d="M13.723 15.052c.442-.143 1.01.944 1.612 1.36.453.316.8.248.8.248l1.608-.023s.84-.052.444-.72c-.033-.055-.233-.495-1.198-1.4-1.008-.945-.87-.792.343-2.427.74-.997 1.035-1.606.942-1.866-.088-.25-.632-.184-.632-.184l-1.811.012c-.177 0-.326.055-.394.239-.002.002-.288.771-.67 1.425-.806 1.385-1.128 1.458-1.261 1.372-.306-.201-.229-.805-.229-1.234 0-1.341.2-1.9-.391-2.045-.198-.049-.343-.08-.847-.085-.644-.01-1.192 0-1.502.153-.206.103-.364.33-.268.342.12.017.39.074.535.272.185.255.18.828.18.828s.106 1.58-.25 1.775c-.245.135-.58-.14-1.298-1.396-.367-.643-.645-1.353-.645-1.353s-.053-.132-.15-.204c-.117-.086-.279-.113-.279-.113l-1.72.01s-.258.008-.353.122c-.084.101-.007.31-.007.31s1.347 3.186 2.873 4.79c1.398 1.474 2.987 1.376 2.987 1.376h.72s.217-.025.329-.144c.103-.111.099-.32.099-.32s-.015-.977.433-1.12Z"/></g></symbol></svg>